<svg xmlns="http://www.w3.org/2000/svg" viewBox="0 0 64 64">
  <rect width="64" height="64" rx="12" fill="#17181A"/>
  <g stroke="#8A8578" stroke-width="2.4" stroke-linecap="round">
    <line x1="12" y1="12" x2="32" y2="12"/>
    <line x1="32" y1="12" x2="52" y2="12"/>
    <line x1="12" y1="32" x2="32" y2="32"/>
    <line x1="32" y1="32" x2="52" y2="32"/>
    <line x1="12" y1="52" x2="32" y2="52"/>
    <line x1="32" y1="52" x2="52" y2="52"/>
    <line x1="12" y1="12" x2="12" y2="32"/>
    <line x1="12" y1="32" x2="12" y2="52"/>
    <line x1="32" y1="12" x2="32" y2="32"/>
    <line x1="32" y1="32" x2="32" y2="52"/>
    <line x1="52" y1="12" x2="52" y2="32"/>
    <line x1="52" y1="32" x2="52" y2="52"/>
    <line x1="12" y1="12" x2="32" y2="32"/>
    <line x1="32" y1="32" x2="52" y2="52"/>
    <line x1="52" y1="12" x2="32" y2="32"/>
    <line x1="32" y1="32" x2="12" y2="52"/>
  </g>
  <circle cx="12" cy="12" r="5" fill="#4C6FCC"/>
  <circle cx="52" cy="12" r="5" fill="#4C6FCC"/>
  <circle cx="32" cy="32" r="5" fill="#D69A2D"/>
  <circle cx="12" cy="52" r="3" fill="#4A473E"/>
  <circle cx="52" cy="52" r="3" fill="#4A473E"/>
  <circle cx="32" cy="12" r="3" fill="#4A473E"/>
  <circle cx="32" cy="52" r="3" fill="#4A473E"/>
  <circle cx="12" cy="32" r="3" fill="#4A473E"/>
  <circle cx="52" cy="32" r="3" fill="#4A473E"/>
</svg>
